<mxfile host="app.diagrams.net" agent="Mozilla/5.0 (Macintosh; Intel Mac OS X 10_15_7) AppleWebKit/537.36 (KHTML, like Gecko) Chrome/135.0.0.0 Safari/537.36" version="26.2.12">
  <diagram name="Page-1" id="V_Mo8AKscUukllgWnyJt">
    <mxGraphModel dx="416" dy="1314" grid="0" gridSize="10" guides="1" tooltips="1" connect="1" arrows="1" fold="1" page="0" pageScale="1" pageWidth="827" pageHeight="1169" math="0" shadow="0">
      <root>
        <mxCell id="0" />
        <mxCell id="1" parent="0" />
        <mxCell id="FmEjsoJKFmGzVlkCQFvS-14" value="Product Table" style="shape=table;startSize=30;container=1;collapsible=1;childLayout=tableLayout;fixedRows=1;rowLines=0;fontStyle=1;align=center;resizeLast=1;html=1;" vertex="1" parent="1">
          <mxGeometry x="1150" y="-685" width="180" height="387.2130325814536" as="geometry" />
        </mxCell>
        <mxCell id="FmEjsoJKFmGzVlkCQFvS-15" value="" style="shape=tableRow;horizontal=0;startSize=0;swimlaneHead=0;swimlaneBody=0;fillColor=none;collapsible=0;dropTarget=0;points=[[0,0.5],[1,0.5]];portConstraint=eastwest;top=0;left=0;right=0;bottom=1;" vertex="1" parent="FmEjsoJKFmGzVlkCQFvS-14">
          <mxGeometry y="30" width="180" height="30" as="geometry" />
        </mxCell>
        <mxCell id="FmEjsoJKFmGzVlkCQFvS-16" value="PK" style="shape=partialRectangle;connectable=0;fillColor=none;top=0;left=0;bottom=0;right=0;fontStyle=1;overflow=hidden;whiteSpace=wrap;html=1;" vertex="1" parent="FmEjsoJKFmGzVlkCQFvS-15">
          <mxGeometry width="30" height="30" as="geometry">
            <mxRectangle width="30" height="30" as="alternateBounds" />
          </mxGeometry>
        </mxCell>
        <mxCell id="FmEjsoJKFmGzVlkCQFvS-17" value="ISBN" style="shape=partialRectangle;connectable=0;fillColor=none;top=0;left=0;bottom=0;right=0;align=left;spacingLeft=6;fontStyle=5;overflow=hidden;whiteSpace=wrap;html=1;" vertex="1" parent="FmEjsoJKFmGzVlkCQFvS-15">
          <mxGeometry x="30" width="150" height="30" as="geometry">
            <mxRectangle width="150" height="30" as="alternateBounds" />
          </mxGeometry>
        </mxCell>
        <mxCell id="FmEjsoJKFmGzVlkCQFvS-18" value="" style="shape=tableRow;horizontal=0;startSize=0;swimlaneHead=0;swimlaneBody=0;fillColor=none;collapsible=0;dropTarget=0;points=[[0,0.5],[1,0.5]];portConstraint=eastwest;top=0;left=0;right=0;bottom=0;" vertex="1" parent="FmEjsoJKFmGzVlkCQFvS-14">
          <mxGeometry y="60" width="180" height="26" as="geometry" />
        </mxCell>
        <mxCell id="FmEjsoJKFmGzVlkCQFvS-19" value="" style="shape=partialRectangle;connectable=0;fillColor=none;top=0;left=0;bottom=0;right=0;editable=1;overflow=hidden;whiteSpace=wrap;html=1;" vertex="1" parent="FmEjsoJKFmGzVlkCQFvS-18">
          <mxGeometry width="30" height="26" as="geometry">
            <mxRectangle width="30" height="26" as="alternateBounds" />
          </mxGeometry>
        </mxCell>
        <mxCell id="FmEjsoJKFmGzVlkCQFvS-20" value="Product Type" style="shape=partialRectangle;connectable=0;fillColor=none;top=0;left=0;bottom=0;right=0;align=left;spacingLeft=6;overflow=hidden;whiteSpace=wrap;html=1;" vertex="1" parent="FmEjsoJKFmGzVlkCQFvS-18">
          <mxGeometry x="30" width="150" height="26" as="geometry">
            <mxRectangle width="150" height="26" as="alternateBounds" />
          </mxGeometry>
        </mxCell>
        <mxCell id="FmEjsoJKFmGzVlkCQFvS-21" value="" style="shape=tableRow;horizontal=0;startSize=0;swimlaneHead=0;swimlaneBody=0;fillColor=none;collapsible=0;dropTarget=0;points=[[0,0.5],[1,0.5]];portConstraint=eastwest;top=0;left=0;right=0;bottom=0;" vertex="1" parent="FmEjsoJKFmGzVlkCQFvS-14">
          <mxGeometry y="86" width="180" height="33" as="geometry" />
        </mxCell>
        <mxCell id="FmEjsoJKFmGzVlkCQFvS-22" value="" style="shape=partialRectangle;connectable=0;fillColor=none;top=0;left=0;bottom=0;right=0;editable=1;overflow=hidden;whiteSpace=wrap;html=1;" vertex="1" parent="FmEjsoJKFmGzVlkCQFvS-21">
          <mxGeometry width="30" height="33" as="geometry">
            <mxRectangle width="30" height="33" as="alternateBounds" />
          </mxGeometry>
        </mxCell>
        <mxCell id="FmEjsoJKFmGzVlkCQFvS-23" value="Title" style="shape=partialRectangle;connectable=0;fillColor=none;top=0;left=0;bottom=0;right=0;align=left;spacingLeft=6;overflow=hidden;whiteSpace=wrap;html=1;" vertex="1" parent="FmEjsoJKFmGzVlkCQFvS-21">
          <mxGeometry x="30" width="150" height="33" as="geometry">
            <mxRectangle width="150" height="33" as="alternateBounds" />
          </mxGeometry>
        </mxCell>
        <mxCell id="FmEjsoJKFmGzVlkCQFvS-24" value="" style="shape=tableRow;horizontal=0;startSize=0;swimlaneHead=0;swimlaneBody=0;fillColor=none;collapsible=0;dropTarget=0;points=[[0,0.5],[1,0.5]];portConstraint=eastwest;top=0;left=0;right=0;bottom=0;" vertex="1" parent="FmEjsoJKFmGzVlkCQFvS-14">
          <mxGeometry y="119" width="180" height="32" as="geometry" />
        </mxCell>
        <mxCell id="FmEjsoJKFmGzVlkCQFvS-25" value="" style="shape=partialRectangle;connectable=0;fillColor=none;top=0;left=0;bottom=0;right=0;editable=1;overflow=hidden;whiteSpace=wrap;html=1;" vertex="1" parent="FmEjsoJKFmGzVlkCQFvS-24">
          <mxGeometry width="30" height="32" as="geometry">
            <mxRectangle width="30" height="32" as="alternateBounds" />
          </mxGeometry>
        </mxCell>
        <mxCell id="FmEjsoJKFmGzVlkCQFvS-26" value="Author" style="shape=partialRectangle;connectable=0;fillColor=none;top=0;left=0;bottom=0;right=0;align=left;spacingLeft=6;overflow=hidden;whiteSpace=wrap;html=1;" vertex="1" parent="FmEjsoJKFmGzVlkCQFvS-24">
          <mxGeometry x="30" width="150" height="32" as="geometry">
            <mxRectangle width="150" height="32" as="alternateBounds" />
          </mxGeometry>
        </mxCell>
        <mxCell id="FmEjsoJKFmGzVlkCQFvS-53" value="" style="shape=tableRow;horizontal=0;startSize=0;swimlaneHead=0;swimlaneBody=0;fillColor=none;collapsible=0;dropTarget=0;points=[[0,0.5],[1,0.5]];portConstraint=eastwest;top=0;left=0;right=0;bottom=0;" vertex="1" parent="FmEjsoJKFmGzVlkCQFvS-14">
          <mxGeometry y="151" width="180" height="30" as="geometry" />
        </mxCell>
        <mxCell id="FmEjsoJKFmGzVlkCQFvS-54" value="" style="shape=partialRectangle;connectable=0;fillColor=none;top=0;left=0;bottom=0;right=0;editable=1;overflow=hidden;" vertex="1" parent="FmEjsoJKFmGzVlkCQFvS-53">
          <mxGeometry width="30" height="30" as="geometry">
            <mxRectangle width="30" height="30" as="alternateBounds" />
          </mxGeometry>
        </mxCell>
        <mxCell id="FmEjsoJKFmGzVlkCQFvS-55" value="Genre" style="shape=partialRectangle;connectable=0;fillColor=none;top=0;left=0;bottom=0;right=0;align=left;spacingLeft=6;overflow=hidden;" vertex="1" parent="FmEjsoJKFmGzVlkCQFvS-53">
          <mxGeometry x="30" width="150" height="30" as="geometry">
            <mxRectangle width="150" height="30" as="alternateBounds" />
          </mxGeometry>
        </mxCell>
        <mxCell id="FmEjsoJKFmGzVlkCQFvS-50" value="" style="shape=tableRow;horizontal=0;startSize=0;swimlaneHead=0;swimlaneBody=0;fillColor=none;collapsible=0;dropTarget=0;points=[[0,0.5],[1,0.5]];portConstraint=eastwest;top=0;left=0;right=0;bottom=0;" vertex="1" parent="FmEjsoJKFmGzVlkCQFvS-14">
          <mxGeometry y="181" width="180" height="30" as="geometry" />
        </mxCell>
        <mxCell id="FmEjsoJKFmGzVlkCQFvS-51" value="" style="shape=partialRectangle;connectable=0;fillColor=none;top=0;left=0;bottom=0;right=0;editable=1;overflow=hidden;" vertex="1" parent="FmEjsoJKFmGzVlkCQFvS-50">
          <mxGeometry width="30" height="30" as="geometry">
            <mxRectangle width="30" height="30" as="alternateBounds" />
          </mxGeometry>
        </mxCell>
        <mxCell id="FmEjsoJKFmGzVlkCQFvS-52" value="Format" style="shape=partialRectangle;connectable=0;fillColor=none;top=0;left=0;bottom=0;right=0;align=left;spacingLeft=6;overflow=hidden;" vertex="1" parent="FmEjsoJKFmGzVlkCQFvS-50">
          <mxGeometry x="30" width="150" height="30" as="geometry">
            <mxRectangle width="150" height="30" as="alternateBounds" />
          </mxGeometry>
        </mxCell>
        <mxCell id="FmEjsoJKFmGzVlkCQFvS-62" value="" style="shape=tableRow;horizontal=0;startSize=0;swimlaneHead=0;swimlaneBody=0;fillColor=none;collapsible=0;dropTarget=0;points=[[0,0.5],[1,0.5]];portConstraint=eastwest;top=0;left=0;right=0;bottom=0;" vertex="1" parent="FmEjsoJKFmGzVlkCQFvS-14">
          <mxGeometry y="211" width="180" height="30" as="geometry" />
        </mxCell>
        <mxCell id="FmEjsoJKFmGzVlkCQFvS-63" value="" style="shape=partialRectangle;connectable=0;fillColor=none;top=0;left=0;bottom=0;right=0;editable=1;overflow=hidden;" vertex="1" parent="FmEjsoJKFmGzVlkCQFvS-62">
          <mxGeometry width="30" height="30" as="geometry">
            <mxRectangle width="30" height="30" as="alternateBounds" />
          </mxGeometry>
        </mxCell>
        <mxCell id="FmEjsoJKFmGzVlkCQFvS-64" value="No. Pages" style="shape=partialRectangle;connectable=0;fillColor=none;top=0;left=0;bottom=0;right=0;align=left;spacingLeft=6;overflow=hidden;" vertex="1" parent="FmEjsoJKFmGzVlkCQFvS-62">
          <mxGeometry x="30" width="150" height="30" as="geometry">
            <mxRectangle width="150" height="30" as="alternateBounds" />
          </mxGeometry>
        </mxCell>
        <mxCell id="FmEjsoJKFmGzVlkCQFvS-47" value="" style="shape=tableRow;horizontal=0;startSize=0;swimlaneHead=0;swimlaneBody=0;fillColor=none;collapsible=0;dropTarget=0;points=[[0,0.5],[1,0.5]];portConstraint=eastwest;top=0;left=0;right=0;bottom=0;" vertex="1" parent="FmEjsoJKFmGzVlkCQFvS-14">
          <mxGeometry y="241" width="180" height="30" as="geometry" />
        </mxCell>
        <mxCell id="FmEjsoJKFmGzVlkCQFvS-48" value="" style="shape=partialRectangle;connectable=0;fillColor=none;top=0;left=0;bottom=0;right=0;editable=1;overflow=hidden;" vertex="1" parent="FmEjsoJKFmGzVlkCQFvS-47">
          <mxGeometry width="30" height="30" as="geometry">
            <mxRectangle width="30" height="30" as="alternateBounds" />
          </mxGeometry>
        </mxCell>
        <mxCell id="FmEjsoJKFmGzVlkCQFvS-49" value="Unit Price" style="shape=partialRectangle;connectable=0;fillColor=none;top=0;left=0;bottom=0;right=0;align=left;spacingLeft=6;overflow=hidden;" vertex="1" parent="FmEjsoJKFmGzVlkCQFvS-47">
          <mxGeometry x="30" width="150" height="30" as="geometry">
            <mxRectangle width="150" height="30" as="alternateBounds" />
          </mxGeometry>
        </mxCell>
        <mxCell id="FmEjsoJKFmGzVlkCQFvS-59" value="" style="shape=tableRow;horizontal=0;startSize=0;swimlaneHead=0;swimlaneBody=0;fillColor=none;collapsible=0;dropTarget=0;points=[[0,0.5],[1,0.5]];portConstraint=eastwest;top=0;left=0;right=0;bottom=0;" vertex="1" parent="FmEjsoJKFmGzVlkCQFvS-14">
          <mxGeometry y="271" width="180" height="30" as="geometry" />
        </mxCell>
        <mxCell id="FmEjsoJKFmGzVlkCQFvS-60" value="" style="shape=partialRectangle;connectable=0;fillColor=none;top=0;left=0;bottom=0;right=0;editable=1;overflow=hidden;" vertex="1" parent="FmEjsoJKFmGzVlkCQFvS-59">
          <mxGeometry width="30" height="30" as="geometry">
            <mxRectangle width="30" height="30" as="alternateBounds" />
          </mxGeometry>
        </mxCell>
        <mxCell id="FmEjsoJKFmGzVlkCQFvS-61" value="Narrator" style="shape=partialRectangle;connectable=0;fillColor=none;top=0;left=0;bottom=0;right=0;align=left;spacingLeft=6;overflow=hidden;" vertex="1" parent="FmEjsoJKFmGzVlkCQFvS-59">
          <mxGeometry x="30" width="150" height="30" as="geometry">
            <mxRectangle width="150" height="30" as="alternateBounds" />
          </mxGeometry>
        </mxCell>
        <mxCell id="FmEjsoJKFmGzVlkCQFvS-65" value="" style="shape=tableRow;horizontal=0;startSize=0;swimlaneHead=0;swimlaneBody=0;fillColor=none;collapsible=0;dropTarget=0;points=[[0,0.5],[1,0.5]];portConstraint=eastwest;top=0;left=0;right=0;bottom=0;" vertex="1" parent="FmEjsoJKFmGzVlkCQFvS-14">
          <mxGeometry y="301" width="180" height="30" as="geometry" />
        </mxCell>
        <mxCell id="FmEjsoJKFmGzVlkCQFvS-66" value="" style="shape=partialRectangle;connectable=0;fillColor=none;top=0;left=0;bottom=0;right=0;editable=1;overflow=hidden;" vertex="1" parent="FmEjsoJKFmGzVlkCQFvS-65">
          <mxGeometry width="30" height="30" as="geometry">
            <mxRectangle width="30" height="30" as="alternateBounds" />
          </mxGeometry>
        </mxCell>
        <mxCell id="FmEjsoJKFmGzVlkCQFvS-67" value="Rating" style="shape=partialRectangle;connectable=0;fillColor=none;top=0;left=0;bottom=0;right=0;align=left;spacingLeft=6;overflow=hidden;" vertex="1" parent="FmEjsoJKFmGzVlkCQFvS-65">
          <mxGeometry x="30" width="150" height="30" as="geometry">
            <mxRectangle width="150" height="30" as="alternateBounds" />
          </mxGeometry>
        </mxCell>
        <mxCell id="FmEjsoJKFmGzVlkCQFvS-56" value="" style="shape=tableRow;horizontal=0;startSize=0;swimlaneHead=0;swimlaneBody=0;fillColor=none;collapsible=0;dropTarget=0;points=[[0,0.5],[1,0.5]];portConstraint=eastwest;top=0;left=0;right=0;bottom=0;" vertex="1" parent="FmEjsoJKFmGzVlkCQFvS-14">
          <mxGeometry y="331" width="180" height="30" as="geometry" />
        </mxCell>
        <mxCell id="FmEjsoJKFmGzVlkCQFvS-57" value="" style="shape=partialRectangle;connectable=0;fillColor=none;top=0;left=0;bottom=0;right=0;editable=1;overflow=hidden;" vertex="1" parent="FmEjsoJKFmGzVlkCQFvS-56">
          <mxGeometry width="30" height="30" as="geometry">
            <mxRectangle width="30" height="30" as="alternateBounds" />
          </mxGeometry>
        </mxCell>
        <mxCell id="FmEjsoJKFmGzVlkCQFvS-58" value="Length" style="shape=partialRectangle;connectable=0;fillColor=none;top=0;left=0;bottom=0;right=0;align=left;spacingLeft=6;overflow=hidden;" vertex="1" parent="FmEjsoJKFmGzVlkCQFvS-56">
          <mxGeometry x="30" width="150" height="30" as="geometry">
            <mxRectangle width="150" height="30" as="alternateBounds" />
          </mxGeometry>
        </mxCell>
        <mxCell id="FmEjsoJKFmGzVlkCQFvS-44" value="" style="shape=tableRow;horizontal=0;startSize=0;swimlaneHead=0;swimlaneBody=0;fillColor=none;collapsible=0;dropTarget=0;points=[[0,0.5],[1,0.5]];portConstraint=eastwest;top=0;left=0;right=0;bottom=0;" vertex="1" parent="FmEjsoJKFmGzVlkCQFvS-14">
          <mxGeometry y="361" width="180" height="26" as="geometry" />
        </mxCell>
        <mxCell id="FmEjsoJKFmGzVlkCQFvS-45" value="" style="shape=partialRectangle;connectable=0;fillColor=none;top=0;left=0;bottom=0;right=0;editable=1;overflow=hidden;" vertex="1" parent="FmEjsoJKFmGzVlkCQFvS-44">
          <mxGeometry width="30" height="26" as="geometry">
            <mxRectangle width="30" height="26" as="alternateBounds" />
          </mxGeometry>
        </mxCell>
        <mxCell id="FmEjsoJKFmGzVlkCQFvS-46" value="Publication Date" style="shape=partialRectangle;connectable=0;fillColor=none;top=0;left=0;bottom=0;right=0;align=left;spacingLeft=6;overflow=hidden;" vertex="1" parent="FmEjsoJKFmGzVlkCQFvS-44">
          <mxGeometry x="30" width="150" height="26" as="geometry">
            <mxRectangle width="150" height="26" as="alternateBounds" />
          </mxGeometry>
        </mxCell>
        <mxCell id="FmEjsoJKFmGzVlkCQFvS-68" value="Inventory" style="shape=table;startSize=30;container=1;collapsible=1;childLayout=tableLayout;fixedRows=1;rowLines=0;fontStyle=1;align=center;resizeLast=1;html=1;" vertex="1" parent="1">
          <mxGeometry x="888" y="-613" width="180" height="119" as="geometry" />
        </mxCell>
        <mxCell id="FmEjsoJKFmGzVlkCQFvS-234" value="" style="shape=tableRow;horizontal=0;startSize=0;swimlaneHead=0;swimlaneBody=0;fillColor=none;collapsible=0;dropTarget=0;points=[[0,0.5],[1,0.5]];portConstraint=eastwest;top=0;left=0;right=0;bottom=0;" vertex="1" parent="FmEjsoJKFmGzVlkCQFvS-68">
          <mxGeometry y="30" width="180" height="30" as="geometry" />
        </mxCell>
        <mxCell id="FmEjsoJKFmGzVlkCQFvS-235" value="PK,FK1" style="shape=partialRectangle;connectable=0;fillColor=none;top=0;left=0;bottom=0;right=0;editable=1;overflow=hidden;fontStyle=1" vertex="1" parent="FmEjsoJKFmGzVlkCQFvS-234">
          <mxGeometry width="52.173913043478365" height="30" as="geometry">
            <mxRectangle width="52.173913043478365" height="30" as="alternateBounds" />
          </mxGeometry>
        </mxCell>
        <mxCell id="FmEjsoJKFmGzVlkCQFvS-236" value="ISBN" style="shape=partialRectangle;connectable=0;fillColor=none;top=0;left=0;bottom=0;right=0;align=left;spacingLeft=6;overflow=hidden;fontStyle=5" vertex="1" parent="FmEjsoJKFmGzVlkCQFvS-234">
          <mxGeometry x="52.173913043478365" width="127.82608695652164" height="30" as="geometry">
            <mxRectangle width="127.82608695652164" height="30" as="alternateBounds" />
          </mxGeometry>
        </mxCell>
        <mxCell id="FmEjsoJKFmGzVlkCQFvS-69" value="" style="shape=tableRow;horizontal=0;startSize=0;swimlaneHead=0;swimlaneBody=0;fillColor=none;collapsible=0;dropTarget=0;points=[[0,0.5],[1,0.5]];portConstraint=eastwest;top=0;left=0;right=0;bottom=1;" vertex="1" parent="FmEjsoJKFmGzVlkCQFvS-68">
          <mxGeometry y="60" width="180" height="29" as="geometry" />
        </mxCell>
        <mxCell id="FmEjsoJKFmGzVlkCQFvS-70" value="PK,FK2" style="shape=partialRectangle;connectable=0;fillColor=none;top=0;left=0;bottom=0;right=0;fontStyle=1;overflow=hidden;whiteSpace=wrap;html=1;" vertex="1" parent="FmEjsoJKFmGzVlkCQFvS-69">
          <mxGeometry width="52.173913043478365" height="29" as="geometry">
            <mxRectangle width="52.173913043478365" height="29" as="alternateBounds" />
          </mxGeometry>
        </mxCell>
        <mxCell id="FmEjsoJKFmGzVlkCQFvS-71" value="Location" style="shape=partialRectangle;connectable=0;fillColor=none;top=0;left=0;bottom=0;right=0;align=left;spacingLeft=6;fontStyle=5;overflow=hidden;whiteSpace=wrap;html=1;" vertex="1" parent="FmEjsoJKFmGzVlkCQFvS-69">
          <mxGeometry x="52.173913043478365" width="127.82608695652164" height="29" as="geometry">
            <mxRectangle width="127.82608695652164" height="29" as="alternateBounds" />
          </mxGeometry>
        </mxCell>
        <mxCell id="FmEjsoJKFmGzVlkCQFvS-75" value="" style="shape=tableRow;horizontal=0;startSize=0;swimlaneHead=0;swimlaneBody=0;fillColor=none;collapsible=0;dropTarget=0;points=[[0,0.5],[1,0.5]];portConstraint=eastwest;top=0;left=0;right=0;bottom=0;" vertex="1" parent="FmEjsoJKFmGzVlkCQFvS-68">
          <mxGeometry y="89" width="180" height="30" as="geometry" />
        </mxCell>
        <mxCell id="FmEjsoJKFmGzVlkCQFvS-76" value="" style="shape=partialRectangle;connectable=0;fillColor=none;top=0;left=0;bottom=0;right=0;editable=1;overflow=hidden;whiteSpace=wrap;html=1;" vertex="1" parent="FmEjsoJKFmGzVlkCQFvS-75">
          <mxGeometry width="52.173913043478365" height="30" as="geometry">
            <mxRectangle width="52.173913043478365" height="30" as="alternateBounds" />
          </mxGeometry>
        </mxCell>
        <mxCell id="FmEjsoJKFmGzVlkCQFvS-77" value="Inventory Quantity" style="shape=partialRectangle;connectable=0;fillColor=none;top=0;left=0;bottom=0;right=0;align=left;spacingLeft=6;overflow=hidden;whiteSpace=wrap;html=1;" vertex="1" parent="FmEjsoJKFmGzVlkCQFvS-75">
          <mxGeometry x="52.173913043478365" width="127.82608695652164" height="30" as="geometry">
            <mxRectangle width="127.82608695652164" height="30" as="alternateBounds" />
          </mxGeometry>
        </mxCell>
        <mxCell id="FmEjsoJKFmGzVlkCQFvS-108" value="Customer Table" style="shape=table;startSize=30;container=1;collapsible=1;childLayout=tableLayout;fixedRows=1;rowLines=0;fontStyle=1;align=center;resizeLast=1;html=1;" vertex="1" parent="1">
          <mxGeometry x="887" y="-453" width="180" height="180" as="geometry" />
        </mxCell>
        <mxCell id="FmEjsoJKFmGzVlkCQFvS-109" value="" style="shape=tableRow;horizontal=0;startSize=0;swimlaneHead=0;swimlaneBody=0;fillColor=none;collapsible=0;dropTarget=0;points=[[0,0.5],[1,0.5]];portConstraint=eastwest;top=0;left=0;right=0;bottom=1;" vertex="1" parent="FmEjsoJKFmGzVlkCQFvS-108">
          <mxGeometry y="30" width="180" height="30" as="geometry" />
        </mxCell>
        <mxCell id="FmEjsoJKFmGzVlkCQFvS-110" value="PK" style="shape=partialRectangle;connectable=0;fillColor=none;top=0;left=0;bottom=0;right=0;fontStyle=1;overflow=hidden;whiteSpace=wrap;html=1;" vertex="1" parent="FmEjsoJKFmGzVlkCQFvS-109">
          <mxGeometry width="29.952380952380963" height="30" as="geometry">
            <mxRectangle width="29.952380952380963" height="30" as="alternateBounds" />
          </mxGeometry>
        </mxCell>
        <mxCell id="FmEjsoJKFmGzVlkCQFvS-111" value="CustomerID" style="shape=partialRectangle;connectable=0;fillColor=none;top=0;left=0;bottom=0;right=0;align=left;spacingLeft=6;fontStyle=5;overflow=hidden;whiteSpace=wrap;html=1;" vertex="1" parent="FmEjsoJKFmGzVlkCQFvS-109">
          <mxGeometry x="29.952380952380963" width="150.04761904761904" height="30" as="geometry">
            <mxRectangle width="150.04761904761904" height="30" as="alternateBounds" />
          </mxGeometry>
        </mxCell>
        <mxCell id="FmEjsoJKFmGzVlkCQFvS-115" value="" style="shape=tableRow;horizontal=0;startSize=0;swimlaneHead=0;swimlaneBody=0;fillColor=none;collapsible=0;dropTarget=0;points=[[0,0.5],[1,0.5]];portConstraint=eastwest;top=0;left=0;right=0;bottom=0;" vertex="1" parent="FmEjsoJKFmGzVlkCQFvS-108">
          <mxGeometry y="60" width="180" height="30" as="geometry" />
        </mxCell>
        <mxCell id="FmEjsoJKFmGzVlkCQFvS-116" value="" style="shape=partialRectangle;connectable=0;fillColor=none;top=0;left=0;bottom=0;right=0;editable=1;overflow=hidden;whiteSpace=wrap;html=1;" vertex="1" parent="FmEjsoJKFmGzVlkCQFvS-115">
          <mxGeometry width="29.952380952380963" height="30" as="geometry">
            <mxRectangle width="29.952380952380963" height="30" as="alternateBounds" />
          </mxGeometry>
        </mxCell>
        <mxCell id="FmEjsoJKFmGzVlkCQFvS-117" value="Name" style="shape=partialRectangle;connectable=0;fillColor=none;top=0;left=0;bottom=0;right=0;align=left;spacingLeft=6;overflow=hidden;whiteSpace=wrap;html=1;" vertex="1" parent="FmEjsoJKFmGzVlkCQFvS-115">
          <mxGeometry x="29.952380952380963" width="150.04761904761904" height="30" as="geometry">
            <mxRectangle width="150.04761904761904" height="30" as="alternateBounds" />
          </mxGeometry>
        </mxCell>
        <mxCell id="FmEjsoJKFmGzVlkCQFvS-118" value="" style="shape=tableRow;horizontal=0;startSize=0;swimlaneHead=0;swimlaneBody=0;fillColor=none;collapsible=0;dropTarget=0;points=[[0,0.5],[1,0.5]];portConstraint=eastwest;top=0;left=0;right=0;bottom=0;" vertex="1" parent="FmEjsoJKFmGzVlkCQFvS-108">
          <mxGeometry y="90" width="180" height="30" as="geometry" />
        </mxCell>
        <mxCell id="FmEjsoJKFmGzVlkCQFvS-119" value="" style="shape=partialRectangle;connectable=0;fillColor=none;top=0;left=0;bottom=0;right=0;editable=1;overflow=hidden;whiteSpace=wrap;html=1;" vertex="1" parent="FmEjsoJKFmGzVlkCQFvS-118">
          <mxGeometry width="29.952380952380963" height="30" as="geometry">
            <mxRectangle width="29.952380952380963" height="30" as="alternateBounds" />
          </mxGeometry>
        </mxCell>
        <mxCell id="FmEjsoJKFmGzVlkCQFvS-120" value="Adress" style="shape=partialRectangle;connectable=0;fillColor=none;top=0;left=0;bottom=0;right=0;align=left;spacingLeft=6;overflow=hidden;whiteSpace=wrap;html=1;" vertex="1" parent="FmEjsoJKFmGzVlkCQFvS-118">
          <mxGeometry x="29.952380952380963" width="150.04761904761904" height="30" as="geometry">
            <mxRectangle width="150.04761904761904" height="30" as="alternateBounds" />
          </mxGeometry>
        </mxCell>
        <mxCell id="FmEjsoJKFmGzVlkCQFvS-141" value="" style="shape=tableRow;horizontal=0;startSize=0;swimlaneHead=0;swimlaneBody=0;fillColor=none;collapsible=0;dropTarget=0;points=[[0,0.5],[1,0.5]];portConstraint=eastwest;top=0;left=0;right=0;bottom=0;" vertex="1" parent="FmEjsoJKFmGzVlkCQFvS-108">
          <mxGeometry y="120" width="180" height="30" as="geometry" />
        </mxCell>
        <mxCell id="FmEjsoJKFmGzVlkCQFvS-142" value="" style="shape=partialRectangle;connectable=0;fillColor=none;top=0;left=0;bottom=0;right=0;editable=1;overflow=hidden;" vertex="1" parent="FmEjsoJKFmGzVlkCQFvS-141">
          <mxGeometry width="29.952380952380963" height="30" as="geometry">
            <mxRectangle width="29.952380952380963" height="30" as="alternateBounds" />
          </mxGeometry>
        </mxCell>
        <mxCell id="FmEjsoJKFmGzVlkCQFvS-143" value="Email" style="shape=partialRectangle;connectable=0;fillColor=none;top=0;left=0;bottom=0;right=0;align=left;spacingLeft=6;overflow=hidden;" vertex="1" parent="FmEjsoJKFmGzVlkCQFvS-141">
          <mxGeometry x="29.952380952380963" width="150.04761904761904" height="30" as="geometry">
            <mxRectangle width="150.04761904761904" height="30" as="alternateBounds" />
          </mxGeometry>
        </mxCell>
        <mxCell id="FmEjsoJKFmGzVlkCQFvS-144" value="" style="shape=tableRow;horizontal=0;startSize=0;swimlaneHead=0;swimlaneBody=0;fillColor=none;collapsible=0;dropTarget=0;points=[[0,0.5],[1,0.5]];portConstraint=eastwest;top=0;left=0;right=0;bottom=0;" vertex="1" parent="FmEjsoJKFmGzVlkCQFvS-108">
          <mxGeometry y="150" width="180" height="30" as="geometry" />
        </mxCell>
        <mxCell id="FmEjsoJKFmGzVlkCQFvS-145" value="" style="shape=partialRectangle;connectable=0;fillColor=none;top=0;left=0;bottom=0;right=0;editable=1;overflow=hidden;" vertex="1" parent="FmEjsoJKFmGzVlkCQFvS-144">
          <mxGeometry width="29.952380952380963" height="30" as="geometry">
            <mxRectangle width="29.952380952380963" height="30" as="alternateBounds" />
          </mxGeometry>
        </mxCell>
        <mxCell id="FmEjsoJKFmGzVlkCQFvS-146" value="Tel No." style="shape=partialRectangle;connectable=0;fillColor=none;top=0;left=0;bottom=0;right=0;align=left;spacingLeft=6;overflow=hidden;" vertex="1" parent="FmEjsoJKFmGzVlkCQFvS-144">
          <mxGeometry x="29.952380952380963" width="150.04761904761904" height="30" as="geometry">
            <mxRectangle width="150.04761904761904" height="30" as="alternateBounds" />
          </mxGeometry>
        </mxCell>
        <mxCell id="FmEjsoJKFmGzVlkCQFvS-147" value="Order Table" style="shape=table;startSize=30;container=1;collapsible=1;childLayout=tableLayout;fixedRows=1;rowLines=0;fontStyle=1;align=center;resizeLast=1;html=1;" vertex="1" parent="1">
          <mxGeometry x="631" y="-605" width="180" height="239.35164835164807" as="geometry" />
        </mxCell>
        <mxCell id="FmEjsoJKFmGzVlkCQFvS-148" value="" style="shape=tableRow;horizontal=0;startSize=0;swimlaneHead=0;swimlaneBody=0;fillColor=none;collapsible=0;dropTarget=0;points=[[0,0.5],[1,0.5]];portConstraint=eastwest;top=0;left=0;right=0;bottom=1;" vertex="1" parent="FmEjsoJKFmGzVlkCQFvS-147">
          <mxGeometry y="30" width="180" height="30" as="geometry" />
        </mxCell>
        <mxCell id="FmEjsoJKFmGzVlkCQFvS-149" value="PK" style="shape=partialRectangle;connectable=0;fillColor=none;top=0;left=0;bottom=0;right=0;fontStyle=1;overflow=hidden;whiteSpace=wrap;html=1;" vertex="1" parent="FmEjsoJKFmGzVlkCQFvS-148">
          <mxGeometry width="29.19047619047626" height="30" as="geometry">
            <mxRectangle width="29.19047619047626" height="30" as="alternateBounds" />
          </mxGeometry>
        </mxCell>
        <mxCell id="FmEjsoJKFmGzVlkCQFvS-150" value="OrderID" style="shape=partialRectangle;connectable=0;fillColor=none;top=0;left=0;bottom=0;right=0;align=left;spacingLeft=6;fontStyle=5;overflow=hidden;whiteSpace=wrap;html=1;" vertex="1" parent="FmEjsoJKFmGzVlkCQFvS-148">
          <mxGeometry x="29.19047619047626" width="150.80952380952374" height="30" as="geometry">
            <mxRectangle width="150.80952380952374" height="30" as="alternateBounds" />
          </mxGeometry>
        </mxCell>
        <mxCell id="FmEjsoJKFmGzVlkCQFvS-151" value="" style="shape=tableRow;horizontal=0;startSize=0;swimlaneHead=0;swimlaneBody=0;fillColor=none;collapsible=0;dropTarget=0;points=[[0,0.5],[1,0.5]];portConstraint=eastwest;top=0;left=0;right=0;bottom=0;" vertex="1" parent="FmEjsoJKFmGzVlkCQFvS-147">
          <mxGeometry y="60" width="180" height="30" as="geometry" />
        </mxCell>
        <mxCell id="FmEjsoJKFmGzVlkCQFvS-152" value="" style="shape=partialRectangle;connectable=0;fillColor=none;top=0;left=0;bottom=0;right=0;editable=1;overflow=hidden;whiteSpace=wrap;html=1;" vertex="1" parent="FmEjsoJKFmGzVlkCQFvS-151">
          <mxGeometry width="29.19047619047626" height="30" as="geometry">
            <mxRectangle width="29.19047619047626" height="30" as="alternateBounds" />
          </mxGeometry>
        </mxCell>
        <mxCell id="FmEjsoJKFmGzVlkCQFvS-153" value="Date" style="shape=partialRectangle;connectable=0;fillColor=none;top=0;left=0;bottom=0;right=0;align=left;spacingLeft=6;overflow=hidden;whiteSpace=wrap;html=1;" vertex="1" parent="FmEjsoJKFmGzVlkCQFvS-151">
          <mxGeometry x="29.19047619047626" width="150.80952380952374" height="30" as="geometry">
            <mxRectangle width="150.80952380952374" height="30" as="alternateBounds" />
          </mxGeometry>
        </mxCell>
        <mxCell id="FmEjsoJKFmGzVlkCQFvS-154" value="" style="shape=tableRow;horizontal=0;startSize=0;swimlaneHead=0;swimlaneBody=0;fillColor=none;collapsible=0;dropTarget=0;points=[[0,0.5],[1,0.5]];portConstraint=eastwest;top=0;left=0;right=0;bottom=0;" vertex="1" parent="FmEjsoJKFmGzVlkCQFvS-147">
          <mxGeometry y="90" width="180" height="30" as="geometry" />
        </mxCell>
        <mxCell id="FmEjsoJKFmGzVlkCQFvS-155" value="" style="shape=partialRectangle;connectable=0;fillColor=none;top=0;left=0;bottom=0;right=0;editable=1;overflow=hidden;whiteSpace=wrap;html=1;" vertex="1" parent="FmEjsoJKFmGzVlkCQFvS-154">
          <mxGeometry width="29.19047619047626" height="30" as="geometry">
            <mxRectangle width="29.19047619047626" height="30" as="alternateBounds" />
          </mxGeometry>
        </mxCell>
        <mxCell id="FmEjsoJKFmGzVlkCQFvS-156" value="Time" style="shape=partialRectangle;connectable=0;fillColor=none;top=0;left=0;bottom=0;right=0;align=left;spacingLeft=6;overflow=hidden;whiteSpace=wrap;html=1;" vertex="1" parent="FmEjsoJKFmGzVlkCQFvS-154">
          <mxGeometry x="29.19047619047626" width="150.80952380952374" height="30" as="geometry">
            <mxRectangle width="150.80952380952374" height="30" as="alternateBounds" />
          </mxGeometry>
        </mxCell>
        <mxCell id="FmEjsoJKFmGzVlkCQFvS-176" value="" style="shape=tableRow;horizontal=0;startSize=0;swimlaneHead=0;swimlaneBody=0;fillColor=none;collapsible=0;dropTarget=0;points=[[0,0.5],[1,0.5]];portConstraint=eastwest;top=0;left=0;right=0;bottom=0;" vertex="1" parent="FmEjsoJKFmGzVlkCQFvS-147">
          <mxGeometry y="120" width="180" height="30" as="geometry" />
        </mxCell>
        <mxCell id="FmEjsoJKFmGzVlkCQFvS-177" value="FK1" style="shape=partialRectangle;connectable=0;fillColor=none;top=0;left=0;bottom=0;right=0;editable=1;overflow=hidden;" vertex="1" parent="FmEjsoJKFmGzVlkCQFvS-176">
          <mxGeometry width="29.19047619047626" height="30" as="geometry">
            <mxRectangle width="29.19047619047626" height="30" as="alternateBounds" />
          </mxGeometry>
        </mxCell>
        <mxCell id="FmEjsoJKFmGzVlkCQFvS-178" value="CustomerID" style="shape=partialRectangle;connectable=0;fillColor=none;top=0;left=0;bottom=0;right=0;align=left;spacingLeft=6;overflow=hidden;" vertex="1" parent="FmEjsoJKFmGzVlkCQFvS-176">
          <mxGeometry x="29.19047619047626" width="150.80952380952374" height="30" as="geometry">
            <mxRectangle width="150.80952380952374" height="30" as="alternateBounds" />
          </mxGeometry>
        </mxCell>
        <mxCell id="FmEjsoJKFmGzVlkCQFvS-172" value="" style="shape=tableRow;horizontal=0;startSize=0;swimlaneHead=0;swimlaneBody=0;fillColor=none;collapsible=0;dropTarget=0;points=[[0,0.5],[1,0.5]];portConstraint=eastwest;top=0;left=0;right=0;bottom=0;" vertex="1" parent="FmEjsoJKFmGzVlkCQFvS-147">
          <mxGeometry y="150" width="180" height="30" as="geometry" />
        </mxCell>
        <mxCell id="FmEjsoJKFmGzVlkCQFvS-173" value="" style="shape=partialRectangle;connectable=0;fillColor=none;top=0;left=0;bottom=0;right=0;editable=1;overflow=hidden;" vertex="1" parent="FmEjsoJKFmGzVlkCQFvS-172">
          <mxGeometry width="29.19047619047626" height="30" as="geometry">
            <mxRectangle width="29.19047619047626" height="30" as="alternateBounds" />
          </mxGeometry>
        </mxCell>
        <mxCell id="FmEjsoJKFmGzVlkCQFvS-174" value="Value" style="shape=partialRectangle;connectable=0;fillColor=none;top=0;left=0;bottom=0;right=0;align=left;spacingLeft=6;overflow=hidden;" vertex="1" parent="FmEjsoJKFmGzVlkCQFvS-172">
          <mxGeometry x="29.19047619047626" width="150.80952380952374" height="30" as="geometry">
            <mxRectangle width="150.80952380952374" height="30" as="alternateBounds" />
          </mxGeometry>
        </mxCell>
        <mxCell id="FmEjsoJKFmGzVlkCQFvS-180" value="" style="shape=tableRow;horizontal=0;startSize=0;swimlaneHead=0;swimlaneBody=0;fillColor=none;collapsible=0;dropTarget=0;points=[[0,0.5],[1,0.5]];portConstraint=eastwest;top=0;left=0;right=0;bottom=0;" vertex="1" parent="FmEjsoJKFmGzVlkCQFvS-147">
          <mxGeometry y="180" width="180" height="29" as="geometry" />
        </mxCell>
        <mxCell id="FmEjsoJKFmGzVlkCQFvS-181" value="FK2" style="shape=partialRectangle;connectable=0;fillColor=none;top=0;left=0;bottom=0;right=0;editable=1;overflow=hidden;" vertex="1" parent="FmEjsoJKFmGzVlkCQFvS-180">
          <mxGeometry width="29.19047619047626" height="29" as="geometry">
            <mxRectangle width="29.19047619047626" height="29" as="alternateBounds" />
          </mxGeometry>
        </mxCell>
        <mxCell id="FmEjsoJKFmGzVlkCQFvS-182" value="Payment Method" style="shape=partialRectangle;connectable=0;fillColor=none;top=0;left=0;bottom=0;right=0;align=left;spacingLeft=6;overflow=hidden;" vertex="1" parent="FmEjsoJKFmGzVlkCQFvS-180">
          <mxGeometry x="29.19047619047626" width="150.80952380952374" height="29" as="geometry">
            <mxRectangle width="150.80952380952374" height="29" as="alternateBounds" />
          </mxGeometry>
        </mxCell>
        <mxCell id="FmEjsoJKFmGzVlkCQFvS-237" value="" style="shape=tableRow;horizontal=0;startSize=0;swimlaneHead=0;swimlaneBody=0;fillColor=none;collapsible=0;dropTarget=0;points=[[0,0.5],[1,0.5]];portConstraint=eastwest;top=0;left=0;right=0;bottom=0;" vertex="1" parent="FmEjsoJKFmGzVlkCQFvS-147">
          <mxGeometry y="209" width="180" height="30" as="geometry" />
        </mxCell>
        <mxCell id="FmEjsoJKFmGzVlkCQFvS-238" value="" style="shape=partialRectangle;connectable=0;fillColor=none;top=0;left=0;bottom=0;right=0;editable=1;overflow=hidden;" vertex="1" parent="FmEjsoJKFmGzVlkCQFvS-237">
          <mxGeometry width="29.19047619047626" height="30" as="geometry">
            <mxRectangle width="29.19047619047626" height="30" as="alternateBounds" />
          </mxGeometry>
        </mxCell>
        <mxCell id="FmEjsoJKFmGzVlkCQFvS-239" value="Payment Info " style="shape=partialRectangle;connectable=0;fillColor=none;top=0;left=0;bottom=0;right=0;align=left;spacingLeft=6;overflow=hidden;" vertex="1" parent="FmEjsoJKFmGzVlkCQFvS-237">
          <mxGeometry x="29.19047619047626" width="150.80952380952374" height="30" as="geometry">
            <mxRectangle width="150.80952380952374" height="30" as="alternateBounds" />
          </mxGeometry>
        </mxCell>
        <mxCell id="FmEjsoJKFmGzVlkCQFvS-183" value="Order Details" style="shape=table;startSize=31;container=1;collapsible=1;childLayout=tableLayout;fixedRows=1;rowLines=0;fontStyle=1;align=center;resizeLast=1;html=1;" vertex="1" parent="1">
          <mxGeometry x="891" y="-762" width="180" height="121" as="geometry" />
        </mxCell>
        <mxCell id="FmEjsoJKFmGzVlkCQFvS-184" value="" style="shape=tableRow;horizontal=0;startSize=0;swimlaneHead=0;swimlaneBody=0;fillColor=none;collapsible=0;dropTarget=0;points=[[0,0.5],[1,0.5]];portConstraint=eastwest;top=0;left=0;right=0;bottom=1;" vertex="1" parent="FmEjsoJKFmGzVlkCQFvS-183">
          <mxGeometry y="31" width="180" height="30" as="geometry" />
        </mxCell>
        <mxCell id="FmEjsoJKFmGzVlkCQFvS-185" value="PK" style="shape=partialRectangle;connectable=0;fillColor=none;top=0;left=0;bottom=0;right=0;fontStyle=1;overflow=hidden;whiteSpace=wrap;html=1;" vertex="1" parent="FmEjsoJKFmGzVlkCQFvS-184">
          <mxGeometry width="30" height="30" as="geometry">
            <mxRectangle width="30" height="30" as="alternateBounds" />
          </mxGeometry>
        </mxCell>
        <mxCell id="FmEjsoJKFmGzVlkCQFvS-186" value="OrderID" style="shape=partialRectangle;connectable=0;fillColor=none;top=0;left=0;bottom=0;right=0;align=left;spacingLeft=6;fontStyle=5;overflow=hidden;whiteSpace=wrap;html=1;" vertex="1" parent="FmEjsoJKFmGzVlkCQFvS-184">
          <mxGeometry x="30" width="150" height="30" as="geometry">
            <mxRectangle width="150" height="30" as="alternateBounds" />
          </mxGeometry>
        </mxCell>
        <mxCell id="FmEjsoJKFmGzVlkCQFvS-187" value="" style="shape=tableRow;horizontal=0;startSize=0;swimlaneHead=0;swimlaneBody=0;fillColor=none;collapsible=0;dropTarget=0;points=[[0,0.5],[1,0.5]];portConstraint=eastwest;top=0;left=0;right=0;bottom=0;" vertex="1" parent="FmEjsoJKFmGzVlkCQFvS-183">
          <mxGeometry y="61" width="180" height="30" as="geometry" />
        </mxCell>
        <mxCell id="FmEjsoJKFmGzVlkCQFvS-188" value="FK1" style="shape=partialRectangle;connectable=0;fillColor=none;top=0;left=0;bottom=0;right=0;editable=1;overflow=hidden;whiteSpace=wrap;html=1;" vertex="1" parent="FmEjsoJKFmGzVlkCQFvS-187">
          <mxGeometry width="30" height="30" as="geometry">
            <mxRectangle width="30" height="30" as="alternateBounds" />
          </mxGeometry>
        </mxCell>
        <mxCell id="FmEjsoJKFmGzVlkCQFvS-189" value="ISBN" style="shape=partialRectangle;connectable=0;fillColor=none;top=0;left=0;bottom=0;right=0;align=left;spacingLeft=6;overflow=hidden;whiteSpace=wrap;html=1;" vertex="1" parent="FmEjsoJKFmGzVlkCQFvS-187">
          <mxGeometry x="30" width="150" height="30" as="geometry">
            <mxRectangle width="150" height="30" as="alternateBounds" />
          </mxGeometry>
        </mxCell>
        <mxCell id="FmEjsoJKFmGzVlkCQFvS-190" value="" style="shape=tableRow;horizontal=0;startSize=0;swimlaneHead=0;swimlaneBody=0;fillColor=none;collapsible=0;dropTarget=0;points=[[0,0.5],[1,0.5]];portConstraint=eastwest;top=0;left=0;right=0;bottom=0;" vertex="1" parent="FmEjsoJKFmGzVlkCQFvS-183">
          <mxGeometry y="91" width="180" height="30" as="geometry" />
        </mxCell>
        <mxCell id="FmEjsoJKFmGzVlkCQFvS-191" value="" style="shape=partialRectangle;connectable=0;fillColor=none;top=0;left=0;bottom=0;right=0;editable=1;overflow=hidden;whiteSpace=wrap;html=1;" vertex="1" parent="FmEjsoJKFmGzVlkCQFvS-190">
          <mxGeometry width="30" height="30" as="geometry">
            <mxRectangle width="30" height="30" as="alternateBounds" />
          </mxGeometry>
        </mxCell>
        <mxCell id="FmEjsoJKFmGzVlkCQFvS-192" value="Quantity" style="shape=partialRectangle;connectable=0;fillColor=none;top=0;left=0;bottom=0;right=0;align=left;spacingLeft=6;overflow=hidden;whiteSpace=wrap;html=1;" vertex="1" parent="FmEjsoJKFmGzVlkCQFvS-190">
          <mxGeometry x="30" width="150" height="30" as="geometry">
            <mxRectangle width="150" height="30" as="alternateBounds" />
          </mxGeometry>
        </mxCell>
        <mxCell id="FmEjsoJKFmGzVlkCQFvS-196" value="" style="edgeStyle=entityRelationEdgeStyle;fontSize=12;html=1;endArrow=ERoneToMany;rounded=0;startSize=8;endSize=8;curved=1;entryX=-0.001;entryY=0.427;entryDx=0;entryDy=0;entryPerimeter=0;" edge="1" parent="1">
          <mxGeometry width="100" height="100" relative="1" as="geometry">
            <mxPoint x="811.18" y="-556.72" as="sourcePoint" />
            <mxPoint x="891" y="-718.1899999999999" as="targetPoint" />
            <Array as="points">
              <mxPoint x="855.18" y="-729.72" />
              <mxPoint x="778.18" y="-649.72" />
              <mxPoint x="874.18" y="-714.32" />
              <mxPoint x="821.18" y="-765.72" />
            </Array>
          </mxGeometry>
        </mxCell>
        <mxCell id="FmEjsoJKFmGzVlkCQFvS-199" value="" style="edgeStyle=entityRelationEdgeStyle;fontSize=12;html=1;endArrow=ERoneToMany;rounded=0;startSize=8;endSize=8;curved=1;exitX=0;exitY=0.5;exitDx=0;exitDy=0;entryX=1;entryY=0.5;entryDx=0;entryDy=0;" edge="1" parent="1" source="FmEjsoJKFmGzVlkCQFvS-15" target="FmEjsoJKFmGzVlkCQFvS-234">
          <mxGeometry width="100" height="100" relative="1" as="geometry">
            <mxPoint x="1009" y="-401.9999999999999" as="sourcePoint" />
            <mxPoint x="1096.74" y="-327.58524812030066" as="targetPoint" />
            <Array as="points">
              <mxPoint x="1208.28" y="-423.03999999999996" />
              <mxPoint x="1214.28" y="-421.03999999999996" />
              <mxPoint x="1224.28" y="-430.03999999999996" />
              <mxPoint x="1228.28" y="-457.03999999999996" />
              <mxPoint x="1178.28" y="-412.03999999999996" />
              <mxPoint x="1171.28" y="-394.03999999999996" />
              <mxPoint x="1115.28" y="-436.03999999999996" />
            </Array>
          </mxGeometry>
        </mxCell>
        <mxCell id="FmEjsoJKFmGzVlkCQFvS-200" value="Payment Info&amp;nbsp;" style="shape=table;startSize=30;container=1;collapsible=1;childLayout=tableLayout;fixedRows=1;rowLines=0;fontStyle=1;align=center;resizeLast=1;html=1;" vertex="1" parent="1">
          <mxGeometry x="631" y="-308" width="180" height="122" as="geometry" />
        </mxCell>
        <mxCell id="FmEjsoJKFmGzVlkCQFvS-222" value="" style="shape=tableRow;horizontal=0;startSize=0;swimlaneHead=0;swimlaneBody=0;fillColor=none;collapsible=0;dropTarget=0;points=[[0,0.5],[1,0.5]];portConstraint=eastwest;top=0;left=0;right=0;bottom=0;" vertex="1" parent="FmEjsoJKFmGzVlkCQFvS-200">
          <mxGeometry y="30" width="180" height="32" as="geometry" />
        </mxCell>
        <mxCell id="FmEjsoJKFmGzVlkCQFvS-223" value="" style="shape=partialRectangle;connectable=0;fillColor=none;top=0;left=0;bottom=0;right=0;editable=1;overflow=hidden;" vertex="1" parent="FmEjsoJKFmGzVlkCQFvS-222">
          <mxGeometry width="51.04347826086962" height="32" as="geometry">
            <mxRectangle width="51.04347826086962" height="32" as="alternateBounds" />
          </mxGeometry>
        </mxCell>
        <mxCell id="FmEjsoJKFmGzVlkCQFvS-224" value="Payment Method" style="shape=partialRectangle;connectable=0;fillColor=none;top=0;left=0;bottom=0;right=0;align=left;spacingLeft=6;overflow=hidden;fontStyle=5" vertex="1" parent="FmEjsoJKFmGzVlkCQFvS-222">
          <mxGeometry x="51.04347826086962" width="128.95652173913038" height="32" as="geometry">
            <mxRectangle width="128.95652173913038" height="32" as="alternateBounds" />
          </mxGeometry>
        </mxCell>
        <mxCell id="FmEjsoJKFmGzVlkCQFvS-201" value="" style="shape=tableRow;horizontal=0;startSize=0;swimlaneHead=0;swimlaneBody=0;fillColor=none;collapsible=0;dropTarget=0;points=[[0,0.5],[1,0.5]];portConstraint=eastwest;top=0;left=0;right=0;bottom=1;" vertex="1" parent="FmEjsoJKFmGzVlkCQFvS-200">
          <mxGeometry y="62" width="180" height="30" as="geometry" />
        </mxCell>
        <mxCell id="FmEjsoJKFmGzVlkCQFvS-202" value="&lt;div&gt;PK,FK2&lt;/div&gt;" style="shape=partialRectangle;connectable=0;fillColor=none;top=0;left=0;bottom=0;right=0;fontStyle=1;overflow=hidden;whiteSpace=wrap;html=1;" vertex="1" parent="FmEjsoJKFmGzVlkCQFvS-201">
          <mxGeometry width="51.04347826086962" height="30" as="geometry">
            <mxRectangle width="51.04347826086962" height="30" as="alternateBounds" />
          </mxGeometry>
        </mxCell>
        <mxCell id="FmEjsoJKFmGzVlkCQFvS-203" value="CustomerID" style="shape=partialRectangle;connectable=0;fillColor=none;top=0;left=0;bottom=0;right=0;align=left;spacingLeft=6;fontStyle=5;overflow=hidden;whiteSpace=wrap;html=1;" vertex="1" parent="FmEjsoJKFmGzVlkCQFvS-201">
          <mxGeometry x="51.04347826086962" width="128.95652173913038" height="30" as="geometry">
            <mxRectangle width="128.95652173913038" height="30" as="alternateBounds" />
          </mxGeometry>
        </mxCell>
        <mxCell id="FmEjsoJKFmGzVlkCQFvS-207" value="" style="shape=tableRow;horizontal=0;startSize=0;swimlaneHead=0;swimlaneBody=0;fillColor=none;collapsible=0;dropTarget=0;points=[[0,0.5],[1,0.5]];portConstraint=eastwest;top=0;left=0;right=0;bottom=0;" vertex="1" parent="FmEjsoJKFmGzVlkCQFvS-200">
          <mxGeometry y="92" width="180" height="30" as="geometry" />
        </mxCell>
        <mxCell id="FmEjsoJKFmGzVlkCQFvS-208" value="" style="shape=partialRectangle;connectable=0;fillColor=none;top=0;left=0;bottom=0;right=0;editable=1;overflow=hidden;whiteSpace=wrap;html=1;" vertex="1" parent="FmEjsoJKFmGzVlkCQFvS-207">
          <mxGeometry width="51.04347826086962" height="30" as="geometry">
            <mxRectangle width="51.04347826086962" height="30" as="alternateBounds" />
          </mxGeometry>
        </mxCell>
        <mxCell id="FmEjsoJKFmGzVlkCQFvS-209" value="Payment Info" style="shape=partialRectangle;connectable=0;fillColor=none;top=0;left=0;bottom=0;right=0;align=left;spacingLeft=6;overflow=hidden;whiteSpace=wrap;html=1;" vertex="1" parent="FmEjsoJKFmGzVlkCQFvS-207">
          <mxGeometry x="51.04347826086962" width="128.95652173913038" height="30" as="geometry">
            <mxRectangle width="128.95652173913038" height="30" as="alternateBounds" />
          </mxGeometry>
        </mxCell>
        <mxCell id="FmEjsoJKFmGzVlkCQFvS-214" value="" style="edgeStyle=entityRelationEdgeStyle;fontSize=12;html=1;endArrow=ERoneToMany;rounded=0;startSize=8;endSize=8;curved=1;exitX=0;exitY=0.5;exitDx=0;exitDy=0;" edge="1" parent="1" source="FmEjsoJKFmGzVlkCQFvS-15" target="FmEjsoJKFmGzVlkCQFvS-187">
          <mxGeometry width="100" height="100" relative="1" as="geometry">
            <mxPoint x="1143" y="-460" as="sourcePoint" />
            <mxPoint x="1071" y="-689" as="targetPoint" />
            <Array as="points">
              <mxPoint x="1153" y="-653" />
              <mxPoint x="1173" y="-631" />
            </Array>
          </mxGeometry>
        </mxCell>
        <mxCell id="FmEjsoJKFmGzVlkCQFvS-216" value="" style="edgeStyle=entityRelationEdgeStyle;fontSize=12;html=1;endArrow=ERoneToMany;rounded=0;startSize=8;endSize=8;curved=1;exitX=0;exitY=0.5;exitDx=0;exitDy=0;" edge="1" parent="1" source="FmEjsoJKFmGzVlkCQFvS-109" target="FmEjsoJKFmGzVlkCQFvS-176">
          <mxGeometry width="100" height="100" relative="1" as="geometry">
            <mxPoint x="936" y="-339" as="sourcePoint" />
            <mxPoint x="1036" y="-439" as="targetPoint" />
          </mxGeometry>
        </mxCell>
        <mxCell id="FmEjsoJKFmGzVlkCQFvS-219" value="" style="edgeStyle=entityRelationEdgeStyle;fontSize=12;html=1;endArrow=ERoneToMany;rounded=0;startSize=8;endSize=8;curved=1;exitX=1;exitY=0.5;exitDx=0;exitDy=0;" edge="1" parent="1">
          <mxGeometry width="100" height="100" relative="1" as="geometry">
            <mxPoint x="813" y="-403.0000000000001" as="sourcePoint" />
            <mxPoint x="630" y="-261" as="targetPoint" />
            <Array as="points">
              <mxPoint x="655" y="-370.57" />
              <mxPoint x="813" y="-467" />
              <mxPoint x="650" y="-529.57" />
              <mxPoint x="529" y="-361.57" />
              <mxPoint x="529" y="-360.57" />
              <mxPoint x="565" y="-397.57" />
              <mxPoint x="513" y="-344.57" />
              <mxPoint x="645" y="-506.57000000000005" />
              <mxPoint x="642" y="-535.57" />
            </Array>
          </mxGeometry>
        </mxCell>
        <mxCell id="FmEjsoJKFmGzVlkCQFvS-225" value="&lt;div&gt;PK,FK1&lt;/div&gt;" style="shape=partialRectangle;connectable=0;fillColor=none;top=0;left=0;bottom=0;right=0;fontStyle=1;overflow=hidden;whiteSpace=wrap;html=1;" vertex="1" parent="1">
          <mxGeometry x="631" y="-273" width="50.43478260869563" height="30" as="geometry">
            <mxRectangle width="50.43478260869563" height="30" as="alternateBounds" />
          </mxGeometry>
        </mxCell>
      </root>
    </mxGraphModel>
  </diagram>
</mxfile>
